<?xml version="1.0" encoding="UTF-8"?>
<svg version="1.1" xmlns="http://www.w3.org/2000/svg" width="256" height="256">
<path d="M0 0 C2.74768844 2.5276066 4.23354271 5.74442775 6 9 C6.78109643 10.25888398 7.57076063 11.51247708 8.3671875 12.76171875 C9.20378551 14.09073028 10.03972218 15.42015834 10.875 16.75 C11.28105469 17.38752197 11.68710938 18.02504395 12.10546875 18.68188477 C14.25069526 22.2015122 15.8279215 24.84586754 15 29 C13.43127991 30.99613948 12.51338573 31.88861863 10.00708008 32.43237305 C9.26868896 32.45855713 8.53029785 32.48474121 7.76953125 32.51171875 C6.96708984 32.54716797 6.16464844 32.58261719 5.33789062 32.61914062 C4.50451172 32.64169922 3.67113281 32.66425781 2.8125 32.6875 C1.96751953 32.72166016 1.12253906 32.75582031 0.25195312 32.79101562 C-1.83156649 32.87341471 -3.91576216 32.93838645 -6 33 C-5.64397705 33.48130371 -5.2879541 33.96260742 -4.92114258 34.45849609 C3.23493328 45.490655 11.32772988 56.56520191 19.34277344 67.70019531 C21.10328601 70.14333445 22.8675938 72.5836967 24.6328125 75.0234375 C25.22763428 75.84577881 25.82245605 76.66812012 26.43530273 77.51538086 C27.57770694 79.09456327 28.72043237 80.67351338 29.86352539 82.25219727 C30.63297485 83.31651978 30.63297485 83.31651978 31.41796875 84.40234375 C32.09508911 85.33808228 32.09508911 85.33808228 32.78588867 86.29272461 C33.88699554 87.84109387 34.94608661 89.41912991 36 91 C35.67 92.65 35.34 94.3 35 96 C23.615 96.495 23.615 96.495 12 97 C18.64085893 106.22341517 25.30023075 115.42781939 32.0625 124.5625 C37.59875514 132.04870367 43.0247776 139.60439625 48.35546875 147.23828125 C49.97372615 149.55447385 51.6180837 151.83425559 53.30078125 154.10546875 C53.94402344 154.97816406 54.58726562 155.85085937 55.25 156.75 C55.79140625 157.46671875 56.3328125 158.1834375 56.890625 158.921875 C58.27912781 161.52287323 58.43159849 163.0914015 58 166 C56.37855135 168.16071493 55.49479345 168.91684038 52.80362415 169.36914349 C51.9435913 169.36637811 51.08355844 169.36361273 50.19746399 169.36076355 C49.20888397 169.36488754 48.22030396 169.36901154 47.20176697 169.3732605 C46.11851639 169.36247467 45.03526581 169.35168884 43.91918945 169.34057617 C42.2067807 169.34123329 42.2067807 169.34123329 40.45977783 169.34190369 C36.67743975 169.33980971 32.89554212 169.31644927 29.11328125 169.29296875 C26.49440249 169.28737498 23.87552059 169.28310385 21.25663757 169.28010559 C15.0624086 169.27077849 8.86833832 169.24615584 2.67417926 169.21605712 C-4.37772889 169.18253371 -11.42964458 169.16603231 -18.48161256 169.15097082 C-32.9878236 169.11960677 -47.49390958 169.06683341 -62 169 C-62 168.01 -62 167.02 -62 166 C-59.7588032 164.39870353 -57.56010393 163.00753863 -55.1875 161.625 C-53.72595198 160.73882384 -52.26640328 159.84934408 -50.80859375 158.95703125 C-50.03112793 158.48217285 -49.25366211 158.00731445 -48.45263672 157.51806641 C-44.16387088 154.86352271 -39.94647884 152.11015256 -35.75 149.3125 C-34.53606567 148.52963623 -34.53606567 148.52963623 -33.29760742 147.73095703 C-27.67925167 143.95376166 -23.98487959 140.46092519 -22.46875 133.59375 C-22.4790625 132.9028125 -22.489375 132.211875 -22.5 131.5 C-22.4896875 130.8090625 -22.479375 130.118125 -22.46875 129.40625 C-23.6028861 124.26928062 -25.67679809 120.90497873 -29.94140625 117.98828125 C-31.13636719 117.43527344 -32.33132812 116.88226563 -33.5625 116.3125 C-34.22636719 115.99925781 -34.89023438 115.68601562 -35.57421875 115.36328125 C-38.0375774 114.21429418 -40.51714586 113.106248 -43 112 C-44.11874512 111.49645996 -45.23749023 110.99291992 -46.39013672 110.47412109 C-54.2416781 106.94056752 -62.11358146 103.45506835 -70 100 C-69.69116411 96.89242173 -69.42878968 95.40142248 -67.11035156 93.23095703 C-65.88783691 92.43987549 -65.88783691 92.43987549 -64.640625 91.6328125 C-63.73505859 91.03758789 -62.82949219 90.44236328 -61.89648438 89.82910156 C-60.94064453 89.22549805 -59.98480469 88.62189453 -59 88 C-58.08025391 87.40928711 -57.16050781 86.81857422 -56.21289062 86.20996094 C-52.44411182 83.80601281 -48.65352361 81.43787079 -44.859375 79.07421875 C-34.35233384 72.89862923 -34.35233384 72.89862923 -28 63 C-27.35760841 56.5136294 -27.01829861 50.4295928 -31 45 C-34.87290924 40.76258166 -38.91020199 36.78486076 -43.4375 33.25 C-46.20129028 30.82325732 -47.23395408 29.57488098 -48 26 C-48 22.5 -48 22.5 -47 19 C-42.95714777 15.12290019 -39.11929391 12.89783631 -33.921875 10.703125 C-33.26922668 10.42402283 -32.61657837 10.14492065 -31.94415283 9.85736084 C-29.88339621 8.97853507 -27.81701322 8.11399221 -25.75 7.25 C-24.34855114 6.65590755 -22.94750525 6.06086358 -21.546875 5.46484375 C-18.9955828 4.37972343 -16.44184013 3.30138656 -13.88574219 2.22753906 C-8.99263553 0.14610587 -5.38560392 -1.34640098 0 0 Z " fill="#6F942E" transform="translate(180,80)"/>
<path d="M0 0 C4.37832644 0.37104461 4.91282938 1.08656503 7.6875 4.3125 C8.748669 5.86360657 9.75734896 7.45156283 10.71875 9.06640625 C11.5543042 10.45714355 11.5543042 10.45714355 12.40673828 11.87597656 C12.99438965 12.8656543 13.58204102 13.85533203 14.1875 14.875 C15.4440328 16.96561343 16.70186489 19.05544644 17.9609375 21.14453125 C18.58838867 22.18689941 19.21583984 23.22926758 19.86230469 24.30322266 C22.46163505 28.58884947 25.12733688 32.83028877 27.8125 37.0625 C28.28969482 37.81797119 28.76688965 38.57344238 29.25854492 39.35180664 C31.85626105 43.45657466 34.48349317 47.54025608 37.13671875 51.609375 C37.98049072 52.91503418 37.98049072 52.91503418 38.84130859 54.24707031 C39.92546808 55.92389514 41.01792171 57.59539401 42.11962891 59.26074219 C42.60222168 60.01000977 43.08481445 60.75927734 43.58203125 61.53125 C44.01362549 62.19060547 44.44521973 62.84996094 44.88989258 63.52929688 C45.6875 65.3125 45.6875 65.3125 44.6875 68.3125 C42.3714593 69.28505007 40.14057317 70.06730064 37.75 70.8125 C29.68580366 73.5088656 21.79830991 76.57237533 13.9375 79.8125 C12.24185913 80.48829102 12.24185913 80.48829102 10.51196289 81.17773438 C4.42644329 83.71500749 0.25357187 85.66880364 -3.3125 91.3125 C-5.15871898 96.85115695 -5.25882873 102.94766803 -2.9375 108.375 C0.68648687 114.79166492 7.18660851 119.21991732 12.75 123.875 C15.00158756 126.70764241 15.47528673 128.63518968 15.9375 132.15234375 C15.41098883 136.70172934 13.53279054 139.62112433 10.02734375 142.48828125 C8.90239906 143.21491772 7.76738539 143.92610321 6.625 144.625 C5.28872263 145.47733197 3.952816 146.33024534 2.6171875 147.18359375 C1.8550293 147.66425293 1.09287109 148.14491211 0.30761719 148.64013672 C-2.75191531 150.59296915 -5.77943491 152.59238258 -8.8046875 154.59765625 C-10.54132291 155.745774 -12.27828541 156.89339525 -14.01535034 158.04086304 C-15.16121719 158.79830318 -16.30651275 159.55660837 -17.45120239 160.31582642 C-19.08823722 161.39988283 -20.72962265 162.47736027 -22.37109375 163.5546875 C-23.32298584 164.1822998 -24.27487793 164.80991211 -25.25561523 165.45654297 C-26.26438721 166.06900879 -27.27315918 166.68147461 -28.3125 167.3125 C-29.17658981 167.86164063 -29.17658981 167.86164063 -30.05813599 168.421875 C-35.90683882 171.7989166 -41.1724911 171.8361484 -47.8125 171.703125 C-48.88878662 171.69746521 -49.96507324 171.69180542 -51.07397461 171.68597412 C-54.48728265 171.66371234 -57.89951309 171.61353352 -61.3125 171.5625 C-63.63670351 171.54242189 -65.9609236 171.52417342 -68.28515625 171.5078125 C-73.96130069 171.46388109 -79.63682333 171.39707134 -85.3125 171.3125 C-85.9725 169.9925 -86.6325 168.6725 -87.3125 167.3125 C-80.71012934 157.50216151 -74.02669477 147.80115291 -66.85253906 138.39916992 C-62.24046478 132.31248168 -57.93934779 126.02765572 -53.67578125 119.69335938 C-51.02707262 115.7669991 -48.34955563 111.95550663 -45.3125 108.3125 C-46.42109375 108.27511719 -47.5296875 108.23773438 -48.671875 108.19921875 C-50.13544974 108.13354552 -51.59898991 108.06709865 -53.0625 108 C-53.79210937 107.97744141 -54.52171875 107.95488281 -55.2734375 107.93164062 C-59.51820619 107.71940219 -62.226358 107.34179201 -65.3125 104.3125 C-65.0843431 97.1404376 -61.6003108 92.38124397 -57.75 86.5 C-56.37258466 84.34836852 -54.99632121 82.19599928 -53.62109375 80.04296875 C-52.90808105 78.93356934 -52.19506836 77.82416992 -51.46044922 76.68115234 C-48.00848849 71.26740443 -44.66316174 65.78929769 -41.3125 60.3125 C-31.1450689 43.75509946 -20.85319785 27.27737824 -10.4375 10.875 C-9.83599121 9.92657227 -9.23448242 8.97814453 -8.61474609 8.00097656 C-8.06383301 7.13569336 -7.51291992 6.27041016 -6.9453125 5.37890625 C-6.45949707 4.61521729 -5.97368164 3.85152832 -5.47314453 3.06469727 C-3.67260948 0.34647259 -3.67260948 0.34647259 0 0 Z " fill="#89A52A" transform="translate(129.3125,4.6875)"/>
<path d="M0 0 C6.77366149 2.43991237 12.96577152 5.66438549 19.14990234 9.32861328 C23.24000355 11.67759764 27.525367 13.53535337 31.83740234 15.43457031 C38.53080375 18.41217242 38.53080375 18.41217242 40.83740234 21.87207031 C41.52490234 25.12207031 41.52490234 25.12207031 40.83740234 28.87207031 C34.71449383 35.12836476 26.23699066 39.73790344 18.9453125 44.56054688 C16.9707505 45.86654873 14.99950065 47.17742546 13.02880859 48.48925781 C11.73863431 49.34631518 10.44827562 50.20309504 9.15771484 51.05957031 C8.30090622 51.62865112 8.30090622 51.62865112 7.42678833 52.20922852 C6.24420874 52.99097929 5.05390682 53.76113924 3.85723877 54.52114868 C1.7465885 55.89355725 1.7465885 55.89355725 -0.47198486 57.70223999 C-8.73014443 63.82934009 -16.27438086 63.84008973 -26.10009766 63.66113281 C-27.71386043 63.65567904 -29.32763427 63.65290878 -30.94140625 63.65267944 C-34.30036645 63.64499965 -37.6579994 63.61427547 -41.01660156 63.56494141 C-45.32204302 63.50227808 -49.6262291 63.48408721 -53.93208313 63.48114967 C-57.2538479 63.47645501 -60.57534593 63.45568899 -63.89700317 63.4292717 C-65.48542113 63.41721941 -67.07386814 63.408512 -68.662323 63.40321732 C-70.87385393 63.39202133 -73.08418298 63.36091038 -75.29541016 63.32373047 C-76.55240723 63.30927887 -77.8094043 63.29482727 -79.10449219 63.27993774 C-82.16259766 62.87207031 -82.16259766 62.87207031 -84.05810547 61.51107788 C-85.90773882 58.76632053 -85.68994608 57.12405229 -85.16259766 53.87207031 C-83.57356897 50.9233334 -81.57822012 48.33412567 -79.53759766 45.68457031 C-78.95365234 44.90210938 -78.36970703 44.11964844 -77.76806641 43.31347656 C-76.53249465 41.65902227 -75.29114138 40.00887204 -74.04443359 38.36279297 C-71.63567785 35.17466037 -69.26543196 31.95958906 -66.90795898 28.73339844 C-65.73673582 27.1488313 -64.54604901 25.57848141 -63.3371582 24.02246094 C-60.27143882 20.03235629 -57.80414401 16.31314458 -55.83056641 11.67285156 C-46.57647024 -8.12829032 -18.36987977 -5.46744615 0 0 Z " fill="#638C2F" transform="translate(105.16259765625,186.1279296875)"/>
<path d="M0 0 C0.33 0.99 0.66 1.98 1 3 C-0.62820655 5.54071791 -2.28284551 7.87287641 -4.125 10.25 C-5.10717211 11.54657112 -6.08894484 12.84344488 -7.0703125 14.140625 C-7.55918945 14.78193359 -8.04806641 15.42324219 -8.55175781 16.08398438 C-11.36200248 19.80192101 -14.12935871 23.51854231 -16.4921875 27.5390625 C-18.79613468 31.29939079 -21.66215721 34.64279522 -24.50390625 38.0078125 C-27.71245713 42.00659995 -28.44533514 44.98270274 -29 50 C-21.23657157 50.02330344 -13.47315153 50.04100598 -5.70969677 50.05181217 C-2.10373373 50.05700197 1.50220515 50.06402757 5.1081543 50.07543945 C8.59652121 50.0864085 12.08486507 50.09230613 15.57324791 50.09487724 C17.5332808 50.09758881 19.49330459 50.10537791 21.45332336 50.11329651 C37.59074422 50.29088155 37.59074422 50.29088155 52 44 C53.2277675 43.19516438 54.45564098 42.39049042 55.68359375 41.5859375 C58.28221369 39.87269088 60.87049912 38.14539238 63.44921875 36.40234375 C64.04524902 36.00128418 64.6412793 35.60022461 65.25537109 35.18701172 C66.40698287 34.40347737 67.55082157 33.6083791 68.68603516 32.80126953 C72.68274307 30 72.68274307 30 76 30 C76.495 28.515 76.495 28.515 77 27 C78.65 26.67 80.3 26.34 82 26 C82 25.34 82 24.68 82 24 C83.8984375 22.4921875 83.8984375 22.4921875 86.375 20.875 C87.18710938 20.33617187 87.99921875 19.79734375 88.8359375 19.2421875 C91 18 91 18 93 18 C92.89592083 14.59919423 92.89592083 14.59919423 92 11 C89.87391821 9.17274994 89.87391821 9.17274994 87 8 C85.72335323 7.28106021 84.45261091 6.55155059 83.1875 5.8125 C82.135625 5.214375 81.08375 4.61625 80 4 C83 3 83 3 85.6640625 4.14453125 C86.64117187 4.69496094 87.61828125 5.24539062 88.625 5.8125 C90.09839844 6.62654297 90.09839844 6.62654297 91.6015625 7.45703125 C94 9 94 9 95 11 C95.625 14.1875 95.625 14.1875 95 18 C88.91301993 24.26943167 80.38754045 28.87380147 73.10791016 33.68847656 C71.13334816 34.99447842 69.16209831 36.30535515 67.19140625 37.6171875 C65.90123197 38.47424487 64.61087328 39.33102473 63.3203125 40.1875 C62.46350388 40.75658081 62.46350388 40.75658081 61.58938599 41.3371582 C60.40680639 42.11890898 59.21650447 42.88906892 58.01983643 43.64907837 C55.90918616 45.02148694 55.90918616 45.02148694 53.69061279 46.83016968 C45.43245323 52.95726977 37.8882168 52.96801941 28.0625 52.7890625 C26.44873722 52.78360873 24.83496338 52.78083847 23.22119141 52.78060913 C19.8622312 52.77292934 16.50459825 52.74220516 13.14599609 52.69287109 C8.84055464 52.63020777 4.53636856 52.6120169 0.23051453 52.60907936 C-3.09125025 52.6043847 -6.41274827 52.58361868 -9.73440552 52.55720139 C-11.32282348 52.5451491 -12.91127048 52.53644168 -14.49972534 52.531147 C-16.71125627 52.51995101 -18.92158532 52.48884007 -21.1328125 52.45166016 C-22.38980957 52.43720856 -23.64680664 52.42275696 -24.94189453 52.40786743 C-28 52 -28 52 -29.89550781 50.63900757 C-31.74514116 47.89425021 -31.52734843 46.25198198 -31 43 C-29.41098955 40.05129694 -27.41564444 37.46199245 -25.375 34.8125 C-24.79758057 34.03874023 -24.22016113 33.26498047 -23.62524414 32.46777344 C-22.39627458 30.82210045 -21.16147947 29.18076449 -19.92138672 27.54345703 C-17.34381496 24.13136776 -14.80809692 20.68925968 -12.27392578 17.24487305 C-11.07621403 15.61772383 -9.87550513 13.99277523 -8.67138672 12.37036133 C-5.66579264 8.31399194 -2.75533119 4.23067968 0 0 Z " fill="#4F7922" transform="translate(51,197)"/>
<path d="M0 0 C0.66 0.33 1.32 0.66 2 1 C1.67 2.65 1.34 4.3 1 6 C-6.59 6.33 -14.18 6.66 -22 7 C-15.35914107 16.22341517 -8.69976925 25.42781939 -1.9375 34.5625 C3.59875514 42.04870367 9.0247776 49.60439625 14.35546875 57.23828125 C15.97372615 59.55447385 17.6180837 61.83425559 19.30078125 64.10546875 C19.94402344 64.97816406 20.58726562 65.85085937 21.25 66.75 C21.79140625 67.46671875 22.3328125 68.1834375 22.890625 68.921875 C24.27912781 71.52287323 24.43159849 73.0914015 24 76 C22.88671875 77.80078125 22.88671875 77.80078125 21 79 C18.08203125 79.29296875 18.08203125 79.29296875 14.8125 79.1875 C13.72582031 79.16042969 12.63914063 79.13335937 11.51953125 79.10546875 C10.27236328 79.05326172 10.27236328 79.05326172 9 79 C9.33 78.34 9.66 77.68 10 77 C12.28515625 76.5859375 12.28515625 76.5859375 15.0625 76.375 C16.44115234 76.26285156 16.44115234 76.26285156 17.84765625 76.1484375 C18.55792969 76.09945312 19.26820313 76.05046875 20 76 C20.33 73.69 20.66 71.38 21 69 C20.34 69 19.68 69 19 69 C17.703125 67.3125 17.703125 67.3125 16.25 65 C14.24601126 61.88430948 12.1964951 58.87360991 9.9375 55.9375 C7.39582648 52.61531256 5.19504742 49.17223078 3.078125 45.56640625 C2.0721746 43.83474436 2.0721746 43.83474436 0 43 C0 42.01 0 41.02 0 40 C-0.66 40 -1.32 40 -2 40 C-3.72689953 37.59181936 -5.34861262 35.18432303 -6.9375 32.6875 C-7.81834568 31.31430389 -8.70236236 29.94313564 -9.58984375 28.57421875 C-9.98034912 27.96151123 -10.37085449 27.34880371 -10.77319336 26.7175293 C-11.96088084 24.9338494 -11.96088084 24.9338494 -13.65063477 23.46411133 C-15 22 -15 22 -15 19 C-15.66 19 -16.32 19 -17 19 C-18.69140625 16.91796875 -18.69140625 16.91796875 -20.5625 14.1875 C-21.18253906 13.29417969 -21.80257812 12.40085938 -22.44140625 11.48046875 C-24 9 -24 9 -25 6 C-24.67 5.34 -24.34 4.68 -24 4 C-16.41 4 -8.82 4 -1 4 C-0.67 2.68 -0.34 1.36 0 0 Z " fill="#577B1E" transform="translate(214,170)"/>
<path d="M0 0 C0.33 0 0.66 0 1 0 C1.28875 1.134375 1.5775 2.26875 1.875 3.4375 C2.24625 4.613125 2.6175 5.78875 3 7 C6.18824568 8.59412284 9.62896662 8.10174735 13.125 8.0625 C13.87910156 8.05798828 14.63320312 8.05347656 15.41015625 8.04882812 C17.27347127 8.03703499 19.13674555 8.01909942 21 8 C21.43219176 10.95331039 21.59140044 13.12708988 19.87060547 15.66699219 C18.83008585 16.83829488 17.77265224 17.99470828 16.70214844 19.13867188 C13.84385985 22.26425882 11.53163281 25.77261117 9.125 29.25 C8.0722378 30.75694599 7.01885197 32.26345651 5.96484375 33.76953125 C5.45808105 34.49479004 4.95131836 35.22004883 4.42919922 35.96728516 C1.93574929 39.51365757 -0.63060189 43.00609239 -3.19140625 46.50390625 C-5.66782953 49.92169129 -8.06774701 53.39107051 -10.47265625 56.859375 C-12 59 -12 59 -14.1875 61.625 C-16.66409381 64.87019189 -18.25043252 68.31341138 -20 72 C-16.37 72 -12.74 72 -9 72 C-8.67 72.66 -8.34 73.32 -8 74 C-12.29 74 -16.58 74 -21 74 C-21.66 72.68 -22.32 71.36 -23 70 C-16.39762934 60.18966151 -9.71419477 50.48865291 -2.54003906 41.08666992 C2.07203522 34.99998168 6.37315221 28.71515572 10.63671875 22.38085938 C13.28542738 18.4544991 15.96294437 14.64300663 19 11 C17.89140625 10.96261719 16.7828125 10.92523438 15.640625 10.88671875 C14.17705026 10.82104552 12.71351009 10.75459865 11.25 10.6875 C10.15558594 10.65366211 10.15558594 10.65366211 9.0390625 10.61914062 C4.79429381 10.40690219 2.086142 10.02929201 -1 7 C-0.67 4.69 -0.34 2.38 0 0 Z " fill="#6C8A1E" transform="translate(65,102)"/>
<path d="M0 0 C1.820991 2.67792794 1.9974456 4.1404918 1.9375 7.4375 C0.30151232 13.65425317 -4.65958012 16.6490433 -9.83203125 20.07421875 C-10.65636909 20.62304214 -10.65636909 20.62304214 -11.49736023 21.18295288 C-13.26511574 22.35724394 -15.03845883 23.52273124 -16.8125 24.6875 C-18.03140345 25.4931761 -19.2501528 26.29908538 -20.46875 27.10522461 C-27.10572686 31.48637413 -33.76690269 35.83019821 -40.5 40.0625 C-41.13268799 40.46106201 -41.76537598 40.85962402 -42.41723633 41.27026367 C-47.69491866 44.54001127 -51.63069787 45.14088832 -57.73046875 45.09765625 C-58.48088943 45.0962413 -59.23131012 45.09482635 -60.00447083 45.09336853 C-62.3988546 45.0877756 -64.79314453 45.07522444 -67.1875 45.0625 C-68.81184761 45.05748408 -70.43619668 45.05292134 -72.06054688 45.04882812 C-76.04040069 45.03780848 -80.02018444 45.02054873 -84 45 C-84 44.67 -84 44.34 -84 44 C-83.17910889 43.9906543 -82.35821777 43.98130859 -81.51245117 43.97167969 C-78.41251508 43.92717987 -75.31350047 43.86535424 -72.21411133 43.79248047 C-70.23476765 43.75099079 -68.25504969 43.72877488 -66.27539062 43.70703125 C-55.18585428 43.42628349 -46.46811595 41.24338564 -37.4375 34.75 C-32.17518248 31 -32.17518248 31 -30 31 C-30 30.34 -30 29.68 -30 29 C-27.48046875 27.30859375 -27.48046875 27.30859375 -24.1875 25.4375 C-23.10855469 24.81746094 -22.02960938 24.19742188 -20.91796875 23.55859375 C-18 22 -18 22 -15 21 C-15 20.34 -15 19.68 -15 19 C-12.8125 17.5625 -12.8125 17.5625 -10 16 C-8.6696875 15.1646875 -8.6696875 15.1646875 -7.3125 14.3125 C-5 13 -5 13 -3 13 C-2.92652344 12.09507812 -2.92652344 12.09507812 -2.8515625 11.171875 C-2.77679688 10.37265625 -2.70203125 9.5734375 -2.625 8.75 C-2.55539063 7.96109375 -2.48578125 7.1721875 -2.4140625 6.359375 C-1.98492887 3.914123 -1.21399362 2.15163097 0 0 Z " fill="#668A21" transform="translate(143,131)"/>
<path d="M0 0 C0.66 0 1.32 0 2 0 C2.0828413 1.35307462 2.14000368 2.70772411 2.1875 4.0625 C2.23970703 5.19365234 2.23970703 5.19365234 2.29296875 6.34765625 C1.80635471 10.75313538 0.63987715 14.39339346 -2.5402832 17.5090332 C-4.39536559 18.96690554 -6.29290231 20.30750175 -8.25 21.625 C-9.21486328 22.30175781 -9.21486328 22.30175781 -10.19921875 22.9921875 C-11.48621111 23.8933411 -12.77802381 24.78765207 -14.07470703 25.67480469 C-16.00862121 27.00593405 -17.91601781 28.3691039 -19.8203125 29.7421875 C-23 32 -23 32 -25.625 33.5 C-28.52773421 35.33330582 -30.71127916 37.44971106 -33 40 C-33 40.66 -33 41.32 -33 42 C-35.31 42 -37.62 42 -40 42 C-40 41.01 -40 40.02 -40 39 C-37.7588032 37.39870353 -35.56010393 36.00753863 -33.1875 34.625 C-31.72595198 33.73882384 -30.26640328 32.84934408 -28.80859375 31.95703125 C-28.03112793 31.48217285 -27.25366211 31.00731445 -26.45263672 30.51806641 C-22.16387088 27.86352271 -17.94647884 25.11015256 -13.75 22.3125 C-12.94071045 21.79059082 -12.1314209 21.26868164 -11.29760742 20.73095703 C-5.53821136 16.85894089 -1.99797355 13.34374387 -0.390625 6.34765625 C-0.34421875 5.59355469 -0.2978125 4.83945313 -0.25 4.0625 C-0.16492188 2.90427734 -0.16492188 2.90427734 -0.078125 1.72265625 C-0.03945312 0.86994141 -0.03945312 0.86994141 0 0 Z " fill="#4E7821" transform="translate(158,207)"/>
<path d="M0 0 C4.36660367 4.06102183 7.68025428 8.5406889 11.0625 13.4375 C11.57876953 14.17548828 12.09503906 14.91347656 12.62695312 15.67382812 C14.093984 17.7762609 15.54810608 19.887098 17 22 C17.41113037 22.58644287 17.82226074 23.17288574 18.24584961 23.77709961 C19.89527966 26.16596728 20.96472624 27.78331832 21.4375 30.6875 C20.89678807 33.54554879 20.33359757 34.28411944 18 36 C15.08203125 36.29296875 15.08203125 36.29296875 11.8125 36.1875 C10.72582031 36.16042969 9.63914063 36.13335937 8.51953125 36.10546875 C7.27236328 36.05326172 7.27236328 36.05326172 6 36 C6.33 35.34 6.66 34.68 7 34 C9.28515625 33.5859375 9.28515625 33.5859375 12.0625 33.375 C12.98160156 33.30023438 13.90070313 33.22546875 14.84765625 33.1484375 C15.55792969 33.09945312 16.26820313 33.05046875 17 33 C17.33 30.69 17.66 28.38 18 26 C17.34 26 16.68 26 16 26 C14.703125 24.3125 14.703125 24.3125 13.25 22 C11.22161611 18.84858405 9.14680697 15.7935259 6.875 12.8125 C0 3.73026316 0 3.73026316 0 0 Z " fill="#4A761E" transform="translate(217,213)"/>
<path d="M0 0 C0.66 0.33 1.32 0.66 2 1 C1.4946875 1.35191406 0.989375 1.70382813 0.46875 2.06640625 C-3.99332699 5.40099456 -3.99332699 5.40099456 -5.5625 10.625 C-4.73660904 15.58034573 -3.25515068 18.08839574 0.625 21.25 C1.25664062 21.77078125 1.88828125 22.2915625 2.5390625 22.828125 C3.02117187 23.21484375 3.50328125 23.6015625 4 24 C3.01 24.33 2.02 24.66 1 25 C-2.85022616 22.54500431 -6.14557638 19.36707779 -8.5625 15.5 C-9.1869472 11.93173028 -8.99945907 9.49810674 -8 6 C-5.7240373 3.41217069 -3.08955691 1.54477846 0 0 Z " fill="#75911C" transform="translate(141,93)"/>
<path d="M0 0 C0.66 0 1.32 0 2 0 C2.51433594 0.95519531 3.02867187 1.91039063 3.55859375 2.89453125 C6.34496882 7.76915395 9.70304892 12.19776632 13.0625 16.6875 C13.68705078 17.52861328 14.31160156 18.36972656 14.95507812 19.23632812 C17.62669613 22.83175001 20.31150223 26.41718893 23 30 C22.67 30.66 22.34 31.32 22 32 C12.86278501 22.29659006 12.86278501 22.29659006 10.1015625 16.8515625 C8.05357284 13.40919691 5.3145025 10.45803073 2.70703125 7.4296875 C0.90849792 4.86976134 0.36681414 3.07685889 0 0 Z " fill="#6F8D1C" transform="translate(171,110)"/>
<path d="M0 0 C0.66 0.33 1.32 0.66 2 1 C1.67 2.65 1.34 4.3 1 6 C-6.59 6.33 -14.18 6.66 -22 7 C-21.01 8.485 -21.01 8.485 -20 10 C-20.33 10.99 -20.66 11.98 -21 13 C-23.0625 10.75 -23.0625 10.75 -25 8 C-24.67 6.68 -24.34 5.36 -24 4 C-16.41 4 -8.82 4 -1 4 C-0.67 2.68 -0.34 1.36 0 0 Z " fill="#638820" transform="translate(214,170)"/>
<path d="M0 0 C1.92247288 0.02801211 3.8450065 0.05214169 5.76757812 0.07226562 C7.59901943 0.10335925 9.43040837 0.13775026 11.26171875 0.17578125 C12.5554969 0.20264763 12.5554969 0.20264763 13.87541199 0.23005676 C14.67667007 0.25895493 15.47792816 0.28785309 16.3034668 0.31762695 C17.00706833 0.34033157 17.71066986 0.36303619 18.43559265 0.38642883 C20.3125 0.6875 20.3125 0.6875 23.3125 2.6875 C22.09667236 2.66131592 20.88084473 2.63513184 19.62817383 2.6081543 C15.10899319 2.5175224 10.58989256 2.46020352 6.07006836 2.4128418 C4.11550377 2.38772719 2.16103283 2.35362869 0.20678711 2.31030273 C-2.60586668 2.24951566 -5.41727702 2.22126017 -8.23046875 2.19921875 C-9.10148727 2.17341232 -9.9725058 2.1476059 -10.86991882 2.12101746 C-15.28604895 2.11898476 -17.04955162 2.14735173 -20.52856445 5.09301758 C-21.24101318 5.94919678 -21.95346191 6.80537598 -22.6875 7.6875 C-25 9 -25 9 -26.6875 9.6875 C-22.86030454 -3.02990168 -10.82676708 -0.38054615 0 0 Z " fill="#5A8219" transform="translate(80.6875,184.3125)"/>
<path d="M0 0 C0.33 0 0.66 0 1 0 C1.28875 1.134375 1.5775 2.26875 1.875 3.4375 C2.24625 4.613125 2.6175 5.78875 3 7 C6.18824568 8.59412284 9.62896662 8.10174735 13.125 8.0625 C14.25615234 8.05573242 14.25615234 8.05573242 15.41015625 8.04882812 C17.27347127 8.03703499 19.13674555 8.01909942 21 8 C21.36761488 13.46827133 21.36761488 13.46827133 19.6875 15.8984375 C18.125 17.265625 16.5625 18.6328125 15 20 C14.34 19.67 13.68 19.34 13 19 C14.98 16.36 16.96 13.72 19 11 C17.89140625 10.96261719 16.7828125 10.92523438 15.640625 10.88671875 C14.17705026 10.82104552 12.71351009 10.75459865 11.25 10.6875 C10.15558594 10.65366211 10.15558594 10.65366211 9.0390625 10.61914062 C4.79429381 10.40690219 2.086142 10.02929201 -1 7 C-0.67 4.69 -0.34 2.38 0 0 Z " fill="#76921F" transform="translate(65,102)"/>
<path d="M0 0 C0 0.66 0 1.32 0 2 C-1.32 2.33 -2.64 2.66 -4 3 C-4.33 4.32 -4.66 5.64 -5 7 C-4.13503906 7.10570312 -3.27007812 7.21140625 -2.37890625 7.3203125 C1.18923291 8.03806535 3.83939509 9.20314429 7.0625 10.875 C8.06410156 11.38804687 9.06570312 11.90109375 10.09765625 12.4296875 C12.78141425 13.88173422 15.39868231 15.40579797 18 17 C17.34 17.33 16.68 17.66 16 18 C13.66162109 17.19555664 13.66162109 17.19555664 10.7734375 15.91015625 C9.7421875 15.45576172 8.7109375 15.00136719 7.6484375 14.53320312 C6.56820312 14.04787109 5.48796875 13.56253906 4.375 13.0625 C3.28703125 12.58103516 2.1990625 12.09957031 1.078125 11.60351562 C-1.61776023 10.40928576 -4.31019758 9.20785328 -7 8 C-6.2421875 3.2265625 -6.2421875 3.2265625 -4.0625 1.1875 C-2 0 -2 0 0 0 Z " fill="#57781B" transform="translate(117,172)"/>
<path d="M0 0 C0.66 0 1.32 0 2 0 C0.51685206 3.9101173 -1.46250372 4.94331612 -5 7 C-7.79245093 9.45817955 -7.79245093 9.45817955 -10 12 C-10 12.66 -10 13.32 -10 14 C-12.31 14 -14.62 14 -17 14 C-17 13.01 -17 12.02 -17 11 C-15.54711914 9.75732422 -15.54711914 9.75732422 -13.53515625 8.5546875 C-12.45911133 7.89919922 -12.45911133 7.89919922 -11.36132812 7.23046875 C-10.60271484 6.78316406 -9.84410156 6.33585938 -9.0625 5.875 C-7.5737111 4.97740396 -6.08540422 4.0790078 -4.59765625 3.1796875 C-3.93258057 2.78507324 -3.26750488 2.39045898 -2.58227539 1.98388672 C-1.01942296 1.09512028 -1.01942296 1.09512028 0 0 Z " fill="#426D1D" transform="translate(135,235)"/>
<path d="M0 0 C0.60457031 0.19851562 1.20914063 0.39703125 1.83203125 0.6015625 C-0.62537171 2.24879976 -3.08383876 3.89440714 -5.54296875 5.5390625 C-6.24164063 6.00763672 -6.9403125 6.47621094 -7.66015625 6.95898438 C-8.33046875 7.40693359 -9.00078125 7.85488281 -9.69140625 8.31640625 C-10.30935059 8.73011475 -10.92729492 9.14382324 -11.56396484 9.57006836 C-14.89845086 11.71439156 -17.22387716 11.68730362 -21.16796875 11.6015625 C-18.48391097 9.50654002 -15.79336952 7.7695401 -12.79296875 6.1640625 C-10.00458298 4.65769317 -7.40737515 3.10315525 -4.85546875 1.2265625 C-2.16796875 -0.3984375 -2.16796875 -0.3984375 0 0 Z " fill="#466F1F" transform="translate(111.16796875,237.3984375)"/>
<path d="M0 0 C1 4 1 4 0.0390625 5.81640625 C-0.42757812 6.39261719 -0.89421875 6.96882812 -1.375 7.5625 C-3.19394974 9.84380847 -4.05350883 11.16052648 -5 14 C-1.37 14 2.26 14 6 14 C6.33 14.66 6.66 15.32 7 16 C2.71 16 -1.58 16 -6 16 C-6.66 14.68 -7.32 13.36 -8 12 C-5.36 8.04 -2.72 4.08 0 0 Z " fill="#5F7F1D" transform="translate(50,160)"/>
<path d="M0 0 C4.38588579 4.07838826 7.72176361 8.58610007 11.125 13.5 C11.64964844 14.24636719 12.17429688 14.99273437 12.71484375 15.76171875 C15.2824473 19.43436686 17.76322224 23.11263451 20 27 C19.01 27 18.02 27 17 27 C15.57421875 24.85546875 15.57421875 24.85546875 14 22 C11.91409281 19.11642275 9.78170914 16.271501 7.64453125 13.42578125 C6 11 6 11 6 9 C5.34 9 4.68 9 4 9 C0 2.25 0 2.25 0 0 Z " fill="#62841D" transform="translate(194,142)"/>
<path d="M0 0 C0.66 0 1.32 0 2 0 C6.17799183 5.48552962 5.78606244 11.39707551 5 18 C3.93516944 20.5721881 2.89864274 21.9233595 1 24 C0.67 23.34 0.34 22.68 0 22 C0.30421875 21.41992188 0.6084375 20.83984375 0.921875 20.2421875 C3.48023408 14.92154217 2.47624675 7.78592529 1 2.25 C0.67 1.5075 0.34 0.765 0 0 Z " fill="#628319" transform="translate(150,125)"/>
<path d="M0 0 C0.5775 0.226875 1.155 0.45375 1.75 0.6875 C0.38875 1.4609375 0.38875 1.4609375 -1 2.25 C-5.25938186 5.11979629 -7.6751821 8.92934018 -8.71484375 13.91796875 C-8.96233446 15.83347907 -9.11479339 17.76080578 -9.25 19.6875 C-11.25 17.6875 -11.25 17.6875 -11.3671875 15.48046875 C-10.73452696 8.67426588 -9.27733481 5.52562639 -4.25 0.8125 C-2.25 -0.3125 -2.25 -0.3125 0 0 Z " fill="#7A9723" transform="translate(133.25,87.3125)"/>
<path d="M0 0 C5.56402091 -0.49035436 8.51388401 1.80033853 12.8828125 4.9765625 C15.06737913 7.06439555 15.72896741 7.99725807 16.125 10.9375 C16.08375 11.948125 16.0425 12.95875 16 14 C15.608125 13.443125 15.21625 12.88625 14.8125 12.3125 C10.52201516 6.83843313 6.27265469 3.78611709 0 1 C0 0.67 0 0.34 0 0 Z " fill="#5A7E1B" transform="translate(142,193)"/>
<path d="M0 0 C5.39882424 4.59474404 10.71333087 9.27676273 16 14 C15.01 14.33 14.02 14.66 13 15 C11.17578125 13.85546875 11.17578125 13.85546875 9.3125 12.1875 C8.68988281 11.64480469 8.06726563 11.10210937 7.42578125 10.54296875 C6 9 6 9 6 7 C5.01 7 4.02 7 3 7 C0.64276511 4.46815512 0 3.52809907 0 0 Z " fill="#6E8C23" transform="translate(126,114)"/>
<path d="M0 0 C0.33 0.66 0.66 1.32 1 2 C-0.06140299 4.79543927 -1.56660609 7.37879366 -3 10 C-3.53625 10.99 -4.0725 11.98 -4.625 13 C-5.305625 13.99 -5.305625 13.99 -6 15 C-6.66 15 -7.32 15 -8 15 C-8.33 15.99 -8.66 16.98 -9 18 C-9.66 17.67 -10.32 17.34 -11 17 C-5.555 8.585 -5.555 8.585 0 0 Z " fill="#83971C" transform="translate(95,54)"/>
<path d="M0 0 C1 3 1 3 -0.625 6.3125 C-2.77173144 9.84034537 -5.27842025 12.90042306 -8 16 C-8 11.9883804 -6.09512932 9.57906142 -4 6.3125 C-3.6184375 5.70599609 -3.236875 5.09949219 -2.84375 4.47460938 C-1.90181528 2.97928801 -0.95168625 1.48913407 0 0 Z " fill="#80981E" transform="translate(80,78)"/>
<path d="M0 0 C1 3 1 3 0.14453125 5.15625 C-0.29503906 5.9296875 -0.73460938 6.703125 -1.1875 7.5 C-1.82751953 8.66015625 -1.82751953 8.66015625 -2.48046875 9.84375 C-4.08576361 12.12170055 -5.6951923 13.4601713 -8 15 C-6.62712658 11.30123909 -4.93644547 8.0485524 -2.875 4.6875 C-2.33617188 3.80449219 -1.79734375 2.92148437 -1.2421875 2.01171875 C-0.83226563 1.34785156 -0.42234375 0.68398438 0 0 Z " fill="#899C21" transform="translate(104,39)"/>
<path d="M0 0 C2.7972908 2.06756277 3.02692273 3.14440371 3.6875 6.6875 C3.790625 7.780625 3.89375 8.87375 4 10 C2.02 10.99 2.02 10.99 0 12 C0.185625 11.13375 0.37125 10.2675 0.5625 9.375 C1.00667933 5.94847372 0.71954492 3.35787629 0 0 Z " fill="#6E8D19" transform="translate(191,99)"/>
<path d="M0 0 C0 0.66 0 1.32 0 2 C-1.32 2.33 -2.64 2.66 -4 3 C-4.33 4.32 -4.66 5.64 -5 7 C-4.01 7.33 -3.02 7.66 -2 8 C-3.65 8 -5.3 8 -7 8 C-6.65930765 4.84859577 -6.41923159 3.39218439 -4.0625 1.1875 C-2 0 -2 0 0 0 Z " fill="#628120" transform="translate(117,172)"/>
<path d="M0 0 C5.94 2.475 5.94 2.475 12 5 C12 5.33 12 5.66 12 6 C3.13043478 5.26086957 3.13043478 5.26086957 0 2 C0 1.34 0 0.68 0 0 Z " fill="#5B7E23" transform="translate(105,187)"/>
<path d="M0 0 C0.66 0 1.32 0 2 0 C5.12940055 3.97193147 5.29162929 7.04230204 5 12 C2.65085508 9.65085508 2.26859643 8.04320554 1.375 4.875 C1.11460937 3.96492187 0.85421875 3.05484375 0.5859375 2.1171875 C0.39257812 1.41851562 0.19921875 0.71984375 0 0 Z " fill="#6E8D18" transform="translate(150,125)"/>
<path d="M0 0 C0.33 0 0.66 0 1 0 C1.28875 1.11375 1.5775 2.2275 1.875 3.375 C2.69241329 7.00291092 2.69241329 7.00291092 5 9 C0.125 8.125 0.125 8.125 -1 7 C-0.71269945 4.66055264 -0.38063221 2.3260857 0 0 Z " fill="#769118" transform="translate(65,102)"/>
<path d="M0 0 C0 0.99 0 1.98 0 3 C-2.25 5.25 -2.25 5.25 -5 7 C-6.32 6.67 -7.64 6.34 -9 6 C-6.03 4.02 -3.06 2.04 0 0 Z " fill="#61811F" transform="translate(138,157)"/>
<path d="M0 0 C1.134375 0.020625 2.26875 0.04125 3.4375 0.0625 C3.7675 0.7225 4.0975 1.3825 4.4375 2.0625 C3.0453125 1.9696875 3.0453125 1.9696875 1.625 1.875 C-1.54645103 1.75355736 -1.54645103 1.75355736 -3.4375 3.5625 C-3.80875 4.0575 -4.18 4.5525 -4.5625 5.0625 C-4.5625 0.08004386 -4.5625 0.08004386 0 0 Z " fill="#9EAB23" transform="translate(129.5625,4.9375)"/>
<path d="M0 0 C2.375 0.25 2.375 0.25 5 1 C6.375 2.8125 6.375 2.8125 7 5 C6.625 7.25 6.625 7.25 6 9 C5.0234375 7.2421875 4.046875 5.484375 3.0703125 3.7265625 C1.99102726 1.8387386 1.99102726 1.8387386 0 0 Z " fill="#53741B" transform="translate(151,198)"/>
<path d="M0 0 C0.66 0.33 1.32 0.66 2 1 C1.360625 1.268125 0.72125 1.53625 0.0625 1.8125 C-2.33131686 2.88667752 -2.33131686 2.88667752 -3 6 C-4.32 5.67 -5.64 5.34 -7 5 C-4.69 3.35 -2.38 1.7 0 0 Z " fill="#5F821D" transform="translate(124,166)"/>
</svg>
